<?xml version="1.0" encoding="utf-8"?>
<!-- Generator: Adobe Illustrator 27.5.0, SVG Export Plug-In . SVG Version: 6.00 Build 0)  -->
<svg version="1.1" xmlns="http://www.w3.org/2000/svg" xmlns:xlink="http://www.w3.org/1999/xlink" x="0px" y="0px"
	 viewBox="0 0 500 500" style="enable-background:new 0 0 500 500;" xml:space="preserve">
<g id="BACKGROUND">
	<g>
		<g>
			<rect style="fill:#7444AD;" width="500" height="500"/>
			<rect style="fill:#FFFFFF;" width="500" height="500"/>
		</g>
	</g>
</g>
<g id="OBJECTS">
	<g>
		<g>
			<path style="fill:#54A25A;" d="M91.268,248.409c0,0,6.897-6.897,3.449-10.691c-3.449-3.794-4.483-4.828-4.138-10.691
				c0.345-5.863-7.587-4.483-7.587-9.656c0-5.173-2.069-8.622-6.552-9.656c-4.483-1.035-3.104-6.897-5.863-6.897
				c-2.759,0-5.863,3.794-3.794,7.242c2.069,3.449,4.138,5.173,3.449,9.311c-0.69,4.138,4.483,3.793,5.173,7.242
				c0.69,3.449-3.449,7.242,0.345,10.691c3.794,3.449,7.587,4.483,6.552,7.587C81.267,245.995,87.129,249.789,91.268,248.409z"/>
			<path style="fill:#5ECB73;" d="M90.828,253.447c0,0-8.511-8.511-4.255-13.192c4.255-4.681,5.532-5.958,5.106-13.192
				c-0.426-7.234,9.362-5.532,9.362-11.915s2.553-10.639,8.085-11.915c5.532-1.277,3.83-8.511,7.234-8.511
				c3.404,0,7.234,4.681,4.681,8.936c-2.553,4.255-5.107,6.383-4.255,11.49c0.851,5.106-5.532,4.681-6.383,8.936
				c-0.851,4.255,4.255,8.936-0.426,13.192c-4.681,4.255-9.362,5.532-8.085,9.362C103.168,250.469,95.934,255.15,90.828,253.447z"/>
			<path style="fill:#D4E9FF;" d="M96.995,267.822h-9.573c-2.347,0-4.333-1.732-4.652-4.057l-2.552-18.59h23.98l-2.552,18.59
				C101.328,266.089,99.342,267.822,96.995,267.822z"/>
		</g>
		<path style="fill:none;stroke:#130E42;stroke-width:0.9883;stroke-miterlimit:10;" d="M406.347,212.196
			c0,0-8.236,7.577-1.318,20.755c6.918,13.178,1.977,27.673-3.953,31.626"/>
		<path style="fill:#D4E9FF;" d="M388.722,254.941c0,0,6.918,3.212,6.918,10.13h-16.06L388.722,254.941z"/>
		<polygon style="fill:#D4E9FF;" points="378.509,181.064 377.85,187.653 408.489,218.291 410.795,211.043 		"/>
		<g>
			
				<rect x="393.335" y="170.855" transform="matrix(0.7071 -0.7071 0.7071 0.7071 -23.1681 337.4925)" style="fill:#130E42;" width="4.941" height="51.715"/>
			
				<rect x="360.693" y="236.905" transform="matrix(0.5681 -0.8229 0.8229 0.5681 -28.3262 428.7261)" style="fill:#130E42;" width="67.258" height="8.895"/>
		</g>
		<g>
			<g>
				<polygon style="fill:#6FA4FF;" points="285.606,349.409 260.568,440.336 257.933,440.336 278.358,347.433 				"/>
				<polygon style="fill:#6FA4FF;" points="264.522,349.409 239.484,440.336 236.849,440.336 257.274,347.433 				"/>
			</g>
			<g>
				<polygon style="fill:#6FA4FF;" points="300.102,349.409 325.139,440.336 327.775,440.336 307.349,347.433 				"/>
				<polygon style="fill:#6FA4FF;" points="321.186,349.409 346.224,440.336 348.859,440.336 328.434,347.433 				"/>
			</g>
		</g>
		<g>
			<path style="fill:#FF981A;" d="M331.069,288.792c0,0-0.659-52.052-25.038-52.711c-24.379-0.659-39.533,19.108-42.169,42.828
				c-2.636,23.72-18.449,56.005-21.743,65.889s42.828,13.178,55.346,9.224c12.519-3.953,38.874-4.612,36.898-32.285
				C332.387,294.063,331.069,288.792,331.069,288.792z"/>
			<path style="fill:#FFC21A;" d="M325.798,243.329c0,0,28.012,83.223,12.519,100.151c-17.79,19.437-86.314,12.189-88.95,8.236
				c-2.636-3.953,69.183,1.647,77.09-16.802c7.907-18.449-10.542-89.609-7.248-91.585
				C322.504,241.352,323.822,238.716,325.798,243.329z"/>
		</g>
		<g>
			<path style="fill:#D54D1A;" d="M274.735,163.274c0,0-18.449,7.66-13.837,30.968c1.977,2.965,7.248-1.318,17.131-0.659
				c9.883,0.659,24.049-3.295,23.39-10.213C300.761,176.452,292.525,158.662,274.735,163.274z"/>
			<g>
				<path style="fill:#FF9F8D;" d="M239.155,199.842c0,0,0.659-7.248-4.942-10.213c-5.601-2.965-9.225-8.236-9.225-8.236
					s-2.306,1.318-0.988,3.624c1.318,2.306,2.636,2.965,2.636,4.612c0,1.647-0.988,2.965-0.988,2.965s-3.953-2.635-6.589-4.612
					c-2.636-1.977-7.248-8.895-8.236-8.236c-0.988,0.659-1.318,1.647,0.329,3.294s5.601,6.589,8.236,8.566
					c2.636,1.977-11.531-10.872-12.519-10.213c-0.988,0.659,0.988,3.624,3.624,6.259c2.636,2.635,9.225,5.93,13.178,7.907
					C227.624,197.536,239.155,199.842,239.155,199.842z"/>
				<path style="fill:#FFB6AB;" d="M239.978,203.301c0,0,13.354,49.207,12.607,56.971s-14.09,7.764-16.066,1.835
					c-1.977-5.93-3.459-51.393-5.436-58.312c-1.977-6.918-18.284-10.872-18.284-10.872s-9.883-8.401-8.895-8.895
					c0.988-0.494,4.942,0,8.401,2.965c3.459,2.965,4.942,3.953,12.354,4.447c7.412,0.494,12.848,0,14.825,4.447
					C241.461,200.336,239.978,203.301,239.978,203.301z"/>
			</g>
			<path style="fill:#FF716A;" d="M268.146,215.161c0,0-3.953-0.494-8.895,7.907c-4.942,8.401-24.214,36.074-15.813,41.016
				c8.401,4.942,14.825-0.988,17.296-5.93c2.471-4.942,22.732-28.662,21.249-35.086C280.5,216.644,274.076,213.185,268.146,215.161z
				"/>
			<g>
				<path style="fill:#FF716A;" d="M181.381,424.382l-2.259,3.388c0,0-11.294,15.059-11.294,17.694s16.564-8.659,18.07-10.541
					c1.506-1.882,1.882-4.141,1.882-4.141l1.129-4.517L181.381,424.382z"/>
				<path style="fill:#FF716A;" d="M220.909,426.641l1.506,4.141c0,0,1.129,13.553,4.518,16.941
					c3.388,2.635,5.271-15.811,3.765-19.576c-1.506-3.012-2.259-4.141-2.259-4.141L220.909,426.641z"/>
				<path style="fill:#0F3C8B;" d="M270.225,307.303c0,0-40.658,0-73.033,20.329c-16.564,15.058,18.823,99.009,21.835,100.515
					c3.765,1.506,9.412-1.129,11.67-4.141c1.506-3.012-7.906-57.222-7.153-71.528l58.728-18.823L270.225,307.303z"/>
				<path style="fill:#231D5A;" d="M191.169,428.523c-2.259,0.753-9.035,0-11.294-4.518c-2.259-4.518,26.352-73.034,41.411-88.845
					c15.059-15.811,43.669-27.858,43.669-27.858l7.474-21.805l41.51-3.953c0,0,14.262,34.041,7.486,48.346
					c0,0-1.506,15.811-27.105,17.317c-25.599,1.506-45.175,4.518-51.952,8.282C235.591,359.254,191.169,428.523,191.169,428.523z"/>
			</g>
			<path style="fill:#FF716A;" d="M274.518,210.522c-5.753,1.643-10.272,6.037-12.35,11.648c-0.094,0.253-0.188,0.498-0.282,0.734
				c-1.318,3.294-8.566,13.178-3.294,21.084c5.271,7.907,7.907,10.542,7.907,23.061c0,12.519-1.977,13.178,0,17.131
				c3.294,3.953,21.743,11.201,52.052-0.659c4.792-1.875-5.93-17.79-3.294-31.626c2.635-13.837,7.907-29.65,2.635-36.239
				C313.378,210.013,294.369,204.854,274.518,210.522z"/>
			<path style="fill:#FF716A;" d="M314.597,213.679c0,0,5.93,0.494,13.837,11.366c7.907,10.872,22.732,27.673,24.214,33.603
				c0.988,5.93-8.401,9.883-16.307,5.436c-7.907-4.447-22.237-21.249-27.673-27.673
				C303.232,229.986,303.726,211.208,314.597,213.679z"/>
			<path style="fill:#FFB6AB;" d="M344.104,252.372c0,0,8.438,0.594,8.785,7.998c0.347,7.404-5.553,8.176-19.467,6.849
				c-13.914-1.327-37.207-2.214-41.673-2.499c-4.466-0.285-6.255,3.756-11.754,2.53c-5.499-1.226-6.062-2.684-8.531-2.568
				c-2.468,0.116-7.69,4.813-10.204,3.941c-2.514-0.871,5.692-5.214,10.513-7.913c4.821-2.7,15.109-4.841,19.104-4.038
				c3.995,0.802,31.014-3.258,40.393-3.698C340.649,252.534,344.104,252.372,344.104,252.372z"/>
			<path style="fill:#FF9F8D;" d="M270.617,212.196c0,0-5.93,11.366,8.895,15.813c14.825,4.447,33.356-10.13,32.862-16.307
				C306.032,208.737,283.218,205.278,270.617,212.196z"/>
			<path style="fill:#FF9F8D;" d="M267.816,185.017c0,0-3.294,7.907-0.988,11.201c2.306,3.294,11.201,2.306,13.178,4.612
				c1.977,2.306,2.636,7.577-1.318,10.213c-1.977,2.635,14.825,3.294,18.119-0.329c-0.329-1.977-5.6-9.554-4.942-14.166
				c0.659-4.612,2.635-12.848,3.294-19.767c0.659-6.918-7.248-10.213-11.86-10.872c-4.612-0.659-11.201,0.33-12.848,5.93
				c-1.647,5.6-4.942,10.872-5.93,11.86C263.533,184.688,267.816,185.017,267.816,185.017z"/>
			<path style="fill:#D54D1A;" d="M280.006,168.545c0,0-2.306,2.965,0.988,8.895c3.294,5.93,7.248,12.189,3.624,20.426
				c0,0,14.166,1.647,24.049-10.213c-0.988-3.624-5.6-17.79-14.825-23.72c-9.224-5.93-19.108-2.306-22.732,0.988
				c-3.624,3.294-10.789,12.395-10.13,20.961C260.98,188.518,264.934,163.645,280.006,168.545z"/>
			<path style="fill:none;stroke:#231D5A;stroke-width:0.4942;stroke-miterlimit:10;" d="M280.253,208.737
				c0,0,0.494,5.436,5.683,8.154c2.718,0.494,8.401-4.942,9.883-9.142"/>
			<circle style="fill:#FFFFFF;" cx="285.936" cy="218.373" r="1.977"/>
		</g>
		<g>
			<g>
				<rect x="154.689" y="251.437" style="fill:#FFFFFF;" width="41.429" height="7.205"/>
				<polygon style="fill:#231D5A;" points="197.671,251.436 197.671,250.194 113.694,250.194 113.694,258.642 154.689,258.642 
					154.689,251.436 				"/>
			</g>
			<g>
				<rect x="158.913" y="246.964" style="fill:#FFFFFF;" width="41.429" height="3.23"/>
				<polygon style="fill:#456BFF;" points="201.895,246.964 201.895,245.722 117.918,245.722 117.918,250.194 158.913,250.194 
					158.913,246.964 				"/>
			</g>
			<g>
				<rect x="118.167" y="258.642" style="fill:#FF5A61;" width="83.977" height="8.447"/>
				<rect x="159.161" y="259.884" style="fill:#FFFFFF;" width="42.982" height="7.205"/>
			</g>
			<g>
				<rect x="137.608" y="253.486" style="fill:#FF8E75;" width="10.062" height="2.236"/>
				<rect x="148.478" y="253.486" style="fill:#484FB6;" width="1.242" height="2.236"/>
			</g>
		</g>
		<path style="fill:#D4E9FF;" d="M192.399,153.72c0,1.288-1.044,2.331-2.331,2.331c-1.288,0-2.331-1.044-2.331-2.331
			c0-1.288,1.044-2.331,2.331-2.331C191.355,151.389,192.399,152.432,192.399,153.72z"/>
		<path style="fill:#D4E9FF;" d="M268.805,136.589c0,2.183-1.77,3.953-3.953,3.953c-2.183,0-3.953-1.77-3.953-3.953
			c0-2.183,1.77-3.953,3.953-3.953C267.035,132.636,268.805,134.406,268.805,136.589z"/>
		<g>
			<path style="fill:#D4E9FF;" d="M187.67,198.238h-32.528c-1.167,0-2.113-0.946-2.113-2.113v-18.561
				c0-1.167,0.946-2.114,2.113-2.114h32.528c1.167,0,2.113,0.946,2.113,2.114v18.561
				C189.783,197.291,188.837,198.238,187.67,198.238z"/>
			<path style="fill:#6FA4FF;" d="M189.02,175.949l-17.246,14.567l-17.568-14.839c-0.22,0.11-0.42,0.251-0.588,0.427l11.174,9.439
				l-11.763,9.936v0.645c0,0.088,0.015,0.172,0.026,0.257l12.285-10.375l6.434,5.435l6.435-5.435l11.575,9.777v-0.924l-11.028-9.315
				l10.723-9.057C189.356,176.281,189.201,176.101,189.02,175.949z"/>
		</g>
		<g>
			<path style="fill:#D4E9FF;" d="M304.33,151.743h-22.061c-0.792,0-1.433-0.642-1.433-1.433v-12.589
				c0-0.792,0.642-1.433,1.433-1.433h22.061c0.792,0,1.433,0.642,1.433,1.433v12.589
				C305.763,151.102,305.122,151.743,304.33,151.743z"/>
			<path style="fill:#6FA4FF;" d="M305.246,136.627l-11.697,9.879l-11.915-10.064c-0.149,0.074-0.285,0.171-0.399,0.29l7.578,6.401
				l-7.978,6.739v0.437c0,0.06,0.01,0.117,0.018,0.174l8.332-7.036l4.364,3.686l4.364-3.686l7.85,6.631v-0.627l-7.479-6.318
				l7.273-6.143C305.474,136.852,305.369,136.73,305.246,136.627z"/>
		</g>
		<g>
			<g>
				<g>
					<path style="fill:#6FA4FF;" d="M234.121,117.022h-21.273c-1.049,0-1.899-0.85-1.899-1.899v-1.52
						c0-1.049,0.851-1.899,1.899-1.899h21.273c1.049,0,1.9,0.85,1.9,1.899v1.52C236.021,116.172,235.17,117.022,234.121,117.022z"/>
					<g>
						<rect x="213.873" y="113.096" style="fill:#FFFFFF;" width="20.286" height="0.76"/>
						<rect x="213.873" y="114.92" style="fill:#FFFFFF;" width="5.774" height="0.76"/>
					</g>
				</g>
				<g>
					<path style="fill:#FFC21A;" d="M239.617,108.092h-21.273c-1.049,0-1.899-0.85-1.899-1.899v-1.519c0-1.049,0.85-1.9,1.899-1.9
						h21.273c1.049,0,1.899,0.85,1.899,1.9v1.519C241.516,107.242,240.666,108.092,239.617,108.092z"/>
					<g>
						<rect x="219.369" y="104.167" style="fill:#FFFFFF;" width="10.384" height="0.76"/>
						<rect x="219.369" y="105.99" style="fill:#FFFFFF;" width="5.774" height="0.76"/>
					</g>
				</g>
			</g>
			<g>
				<g>
					<path style="fill:#6FA4FF;" d="M234.121,99.277h-21.273c-1.049,0-1.899-0.85-1.899-1.899v-1.52
						c0-1.049,0.851-1.899,1.899-1.899h21.273c1.049,0,1.9,0.85,1.9,1.899v1.52C236.021,98.426,235.17,99.277,234.121,99.277z"/>
					<g>
						<rect x="213.873" y="95.351" style="fill:#FFFFFF;" width="20.286" height="0.76"/>
						<rect x="213.873" y="97.175" style="fill:#FFFFFF;" width="5.774" height="0.76"/>
					</g>
				</g>
				<g>
					<path style="fill:#FFC21A;" d="M239.617,90.347h-21.273c-1.049,0-1.899-0.851-1.899-1.899v-1.52
						c0-1.049,0.85-1.899,1.899-1.899h21.273c1.049,0,1.899,0.85,1.899,1.899v1.52C241.516,89.496,240.666,90.347,239.617,90.347z"
						/>
					<g>
						<rect x="219.369" y="86.421" style="fill:#FFFFFF;" width="10.384" height="0.76"/>
						<rect x="219.369" y="88.245" style="fill:#FFFFFF;" width="5.774" height="0.76"/>
					</g>
				</g>
			</g>
		</g>
		<g>
			<g>
				<path style="fill:#C2E0FF;" d="M305.373,267.414H253.08v-2.199h50.094C304.388,265.214,305.373,266.199,305.373,267.414
					L305.373,267.414z"/>
				<g>
					<path style="fill:#C2E0FF;" d="M259.777,266.98h-80.716l-6.818-46.622c-0.208-1.425,0.897-2.704,2.337-2.704h75.941
						c1.173,0,2.167,0.86,2.337,2.02L259.777,266.98z"/>
					<path style="fill:#231D5A;" d="M258.232,266.98h-80.715l-6.818-46.622c-0.208-1.425,0.897-2.704,2.337-2.704h75.941
						c1.172,0,2.167,0.86,2.337,2.02L258.232,266.98z"/>
				</g>
			</g>
			<path style="fill:#D4E9FF;" d="M216.828,245.128c0.328,3.135-2.054,5.688-5.321,5.701c-3.267,0.013-6.181-2.518-6.509-5.654
				c-0.328-3.135,2.054-5.688,5.321-5.701C213.586,239.462,216.5,241.993,216.828,245.128z"/>
		</g>
		<g>
			<g>
				<g>
					<g>
						<polygon style="fill:#D4E9FF;" points="412.501,278.142 444.473,442.448 440.921,442.448 405.395,277.254 						"/>
						<polygon style="fill:#6FA4FF;" points="391.746,278.142 423.719,442.448 420.166,442.448 384.641,277.254 						"/>
					</g>
					<g>
						<polygon style="fill:#D4E9FF;" points="87.499,278.142 55.526,442.448 59.079,442.448 94.604,277.254 						"/>
						<polygon style="fill:#6FA4FF;" points="108.254,278.142 76.281,442.448 79.834,442.448 115.359,277.254 						"/>
					</g>
				</g>
				<path style="fill:#FF981A;" d="M427.184,279.918H72.816c-5.15,0-9.325-4.175-9.325-9.325l0,0h373.018l0,0
					C436.509,275.743,432.334,279.918,427.184,279.918z"/>
			</g>
			<rect x="54.64" y="266.39" style="fill:#0F3C8B;" width="390.72" height="5.271"/>
		</g>
		<rect x="355.448" y="263.754" style="fill:#130E42;" width="64.571" height="3.295"/>
		<path style="fill:#FF6961;" d="M281.706,183.233c0.985,2.031,0.138,4.476-1.892,5.461c-2.03,0.985-4.475,0.138-5.461-1.892
			c-0.986-2.031-0.138-4.475,1.892-5.461C278.275,180.355,280.72,181.202,281.706,183.233z"/>
		<path style="fill:#D4E9FF;" d="M419.36,214.008c0,3.275-2.655,5.93-5.93,5.93c-3.275,0-5.93-2.655-5.93-5.93
			c0-3.275,2.655-5.93,5.93-5.93C416.705,208.078,419.36,210.733,419.36,214.008z"/>
		<path style="fill:#FFFFFF;" d="M416.725,214.008c0,1.819-1.475,3.294-3.294,3.294c-1.819,0-3.294-1.475-3.294-3.294
			c0-1.819,1.475-3.294,3.294-3.294C415.25,210.714,416.725,212.189,416.725,214.008z"/>
		<g>
			
				<ellipse transform="matrix(0.2327 -0.9725 0.9725 0.2327 12.5617 260.8185)" style="fill:#D4E9FF;" cx="171.578" cy="122.448" rx="29.855" ry="29.855"/>
			<path style="fill:#4582FF;" d="M181.841,149.193c-12.073-12.074-26.831-11.292-34.752-9.678
				c5.396,7.728,14.349,12.788,24.49,12.788c3.893,0,7.609-0.753,11.019-2.109C182.352,149.863,182.108,149.531,181.841,149.193z"/>
			<g>
				<path style="fill:#FF9F8D;" d="M184.016,126.078c0,0,1.532,6.355-0.603,8.561c-2.134,2.206-8.719,0.391-10.486,1.891
					c-1.767,1.5-2.898,5.394-0.235,7.855c1.173,2.224-11.569,0.699-13.616-2.428c0.486-1.45,5.37-6.527,5.428-10.082
					c0.058-3.555-0.441-10-0.105-15.294c0.336-5.293,6.691-6.825,10.246-6.767c3.555,0.058,8.402,1.596,8.97,6.015
					c0.568,4.419,2.417,8.788,3.042,9.652C187.284,126.345,184.016,126.078,184.016,126.078z"/>
			</g>
			<path style="fill:#0F3C8B;" d="M163.181,109.853c0,0-4.976,3.11-3.576,8.397c1.399,5.287,5.131,9.796,5.131,9.796l4.82-1.711
				c0,0-3.265-4.665-2.021-6.686c1.244-2.021,3.421-1.244,4.198,0.466c0.777,1.711,0.622,4.043,0.622,4.043l1.866-0.622
				c0,0,0.933-5.909-0.622-8.708c-1.555-2.799-2.332-2.954-2.332-2.954s1.555,2.488,5.442,1.244
				c3.887-1.244,5.131,1.555,7.775,2.021c2.643,0.466,3.732-2.177,3.732-2.177s-1.399,0.466-2.799-0.466
				c-1.4-0.933-2.333-5.131-5.909-7.153C175.932,103.322,165.669,101.767,163.181,109.853z"/>
			<path style="fill:#FF6961;" d="M179.341,124.818c0.58,1.196,0.081,2.636-1.115,3.216c-1.196,0.581-2.636,0.082-3.216-1.114
				c-0.58-1.196-0.081-2.636,1.115-3.216C177.321,123.123,178.761,123.622,179.341,124.818z"/>
			<path style="fill:#FF7E79;" d="M172.928,136.529c1.767-1.5,8.352,0.315,10.486-1.891c0.195-0.201,0.349-0.446,0.487-0.708
				c-0.66,0.483-1.568,0.846-2.837,0.957c-5.365,0.466-10.729-6.997-12.362-4.665c-1.633,2.333,1.399,6.531,0.466,10.496
				c-0.395,1.677-1.499,3.183-2.641,4.368c3.52,0.602,6.785,0.474,6.166-0.702C170.03,141.923,171.16,138.03,172.928,136.529z"/>
		</g>
		<g>
			<circle style="fill:#D4E9FF;" cx="235.078" cy="148.968" r="24.914"/>
			<path style="fill:#231D5A;" d="M236.766,138.566l-5.601-4.447c0,0-3.789,0.988-5.024,6.177
				c-1.235,5.189,6.424,6.424,2.224,11.119c-4.2,4.695-8.154,4.942-7.165,10.378c0.338,1.86-1.985,2.938-4.623,3.859
				c4.56,5.054,11.159,8.231,18.501,8.231c1.458,0,2.883-0.132,4.272-0.372c3.715-11.296,1.557-26.137,1.122-26.79
				C239.978,145.978,236.766,138.566,236.766,138.566z"/>
			<g>
				<g>
					<path style="fill:#FF9F8D;" d="M227.422,147.94c0,0-2.729,4.723-1.543,6.993c1.186,2.27,6.885,2.375,7.944,3.994
						c1.059,1.619,1.043,5.002-1.67,6.342c-1.465,1.502,9.093,3.297,11.471,1.278c-0.046-1.275-2.753-6.493-1.959-9.352
						c0.795-2.859,2.719-7.898,3.702-12.214c0.984-4.315-3.74-7.045-6.599-7.839c-2.859-0.794-7.101-0.711-8.601,2.691
						c-1.5,3.402-4.013,6.461-4.718,7.004C224.744,147.38,227.422,147.94,227.422,147.94z"/>
				</g>
				<path style="fill:#FF6961;" d="M231.461,148.037c-0.747,0.82-0.689,2.09,0.131,2.837c0.82,0.747,2.09,0.689,2.837-0.131
					c0.747-0.82,0.689-2.09-0.131-2.837C233.479,147.159,232.209,147.218,231.461,148.037z"/>
				<path style="fill:#FF7E79;" d="M233.823,158.927c-1.059-1.618-6.758-1.724-7.944-3.994c-0.108-0.207-0.174-0.439-0.222-0.681
					c0.414,0.543,1.054,1.048,2.044,1.437c4.183,1.642,10.241-3.061,10.996-0.809c0.755,2.253-2.665,4.895-2.856,8.289
					c-0.081,1.435,0.447,2.902,1.081,4.12c-2.959-0.351-5.542-1.226-4.768-2.02C234.866,163.928,234.882,160.545,233.823,158.927z"
					/>
			</g>
			<path style="fill:#FFC21A;" d="M235.078,173.882c5.492,0,10.566-1.781,14.684-4.791c-1.644-2.036-4.043-2.731-5.336-3.84
				c-1.73-1.482-0.988-4.448-1.977-5.189c-0.988-0.741-8.401,0.494-8.401,0.494c0.741,3.459-1.977,5.436-7.165,7.66
				c-1.675,0.718-3.218,1.513-4.228,2.344C226.312,172.669,230.552,173.882,235.078,173.882z"/>
			<path style="fill:#231D5A;" d="M259.064,155.7c-0.077-0.111-0.143-0.222-0.225-0.333c-3.294-4.448-7.742-3.953-9.554-10.213
				c-1.812-6.259-1.318-7.083-5.271-9.554c-3.953-2.471-8.73-3.953-12.848-1.482c0,0-4.467,2.206-0.998,5.715
				c3.469,3.509,5.94,1.697,6.764,5.651c0.824,3.953-2.965,5.765,0.165,8.565c3.13,2.8-0.165,4.777,1.647,9.883
				c1.047,2.95,3.69,6.281,7.069,7.523C252.224,168.389,257.115,162.66,259.064,155.7z"/>
		</g>
		<g>
			<path style="fill:#6FA4FF;" d="M151.434,92.298h-19.985c-1.91,0-3.459,1.549-3.459,3.459v26.518c0,1.91,1.549,3.459,3.459,3.459
				H142.2c0.757,1.116,2.577,3.543,4.622,4.42v-4.42h4.612c1.91,0,3.459-1.549,3.459-3.459V95.757
				C154.893,93.847,153.344,92.298,151.434,92.298z"/>
			<g>
				<g>
					
						<rect x="136.873" y="98.447" transform="matrix(-1 -1.224647e-16 1.224647e-16 -1 287.9232 198.1252)" style="fill:#FFFFFF;" width="14.176" height="1.231"/>
					
						<rect x="143.979" y="102.344" transform="matrix(-1 -1.224647e-16 1.224647e-16 -1 295.0289 205.9188)" style="fill:#FFFFFF;" width="7.071" height="1.231"/>
					
						<rect x="141.954" y="106.138" transform="matrix(-1 -1.224647e-16 1.224647e-16 -1 293.0037 213.5074)" style="fill:#FFFFFF;" width="9.096" height="1.231"/>
				</g>
				<g>
					
						<rect x="131.706" y="110.599" transform="matrix(-1 -1.224647e-16 1.224647e-16 -1 282.7554 222.4288)" style="fill:#FFFFFF;" width="19.344" height="1.231"/>
					
						<rect x="141.401" y="114.496" transform="matrix(-1 -1.224647e-16 1.224647e-16 -1 292.4513 230.2225)" style="fill:#FFFFFF;" width="9.648" height="1.23"/>
					
						<rect x="138.638" y="118.29" transform="matrix(-1 -1.224647e-16 1.224647e-16 -1 289.688 237.811)" style="fill:#FFFFFF;" width="12.412" height="1.231"/>
				</g>
			</g>
		</g>
		<g>
			<rect x="321.68" y="153.226" style="fill:#6FA4FF;" width="35.58" height="47.44"/>
			<g>
				<rect x="318.056" y="149.931" style="fill:#D4E9FF;" width="35.58" height="47.44"/>
				<g>
					<g>
						<rect x="323.771" y="163.018" style="fill:#FFFFFF;" width="14.176" height="1.231"/>
						<rect x="323.771" y="166.915" style="fill:#FFFFFF;" width="7.071" height="1.231"/>
						<rect x="323.771" y="170.709" style="fill:#FFFFFF;" width="9.096" height="1.231"/>
					</g>
					<g>
						<rect x="323.771" y="175.17" style="fill:#FFFFFF;" width="19.344" height="1.23"/>
						<rect x="323.771" y="179.067" style="fill:#FFFFFF;" width="9.648" height="1.23"/>
						<rect x="323.771" y="182.861" style="fill:#FFFFFF;" width="12.412" height="1.23"/>
					</g>
				</g>
			</g>
		</g>
		<g>
			<g>
				
					<ellipse transform="matrix(0.7071 -0.7071 0.7071 0.7071 4.0573 221.6657)" style="fill:#D4E9FF;" cx="269.603" cy="105.935" rx="15.525" ry="15.525"/>
			</g>
			<path style="fill:#6FA4FF;" d="M261.762,107.512c0.326-0.449,1.287-2.721,1.582-5.019c0.022-0.172,0.079-0.319,0.125-0.475
				c-0.503-0.466-0.919-1.112-0.771-1.924c0.329-1.812,2.8-3.13,6.424-2.8c3.624,0.329,3.459,2.306,3.459,2.306s1.153,0,2.471,1.812
				c1.301,1.789-0.448,8.221-1.76,8.227c-0.01,0.439-0.016,0.851-0.011,1.198c0.019,1.135,0.983,2.567,1.783,3.679
				c2.843-0.368,5.419-0.084,7.273,0.294c-2.806,4.018-7.462,6.649-12.734,6.649c-2.025,0-3.956-0.392-5.73-1.097
				c0.128-0.173,0.254-0.345,0.393-0.521c1.761-1.761,3.632-2.982,5.504-3.829c0.23-1.075-0.232-2.215-0.869-2.756
				c-0.057-0.049-0.125-0.091-0.201-0.127c-0.152-0.072-0.338-0.122-0.549-0.155c-0.211-0.034-0.447-0.051-0.699-0.061
				c-0.252-0.01-0.519-0.011-0.793-0.011c-0.274,0-0.553,0-0.83-0.006c-0.415-0.009-0.822-0.033-1.191-0.096
				c-0.123-0.021-0.241-0.047-0.354-0.078c-0.339-0.093-0.628-0.235-0.836-0.45c-0.101-0.104-0.182-0.232-0.253-0.368l0,0l0,0
				c-0.713-1.359-0.06-4.084-0.06-4.084S261.436,107.962,261.762,107.512z"/>
		</g>
		
			<rect x="127.803" y="161.791" style="fill:none;stroke:#6FA4FF;stroke-width:0.9883;stroke-miterlimit:10;" width="43.981" height="4.942"/>
		
			<rect x="308.173" y="130.659" style="fill:none;stroke:#6FA4FF;stroke-width:0.9883;stroke-miterlimit:10;" width="14.825" height="3.459"/>
		<g>
			<path style="fill:none;stroke:#6FA4FF;stroke-width:0.9883;stroke-miterlimit:10;" d="M300.266,111.881
				c0,1.092-0.885,1.977-1.977,1.977s-1.977-0.885-1.977-1.977s0.885-1.977,1.977-1.977S300.266,110.789,300.266,111.881z"/>
			<path style="fill:none;stroke:#6FA4FF;stroke-width:0.9883;stroke-miterlimit:10;" d="M309.161,111.881
				c0,1.092-0.885,1.977-1.977,1.977s-1.977-0.885-1.977-1.977s0.885-1.977,1.977-1.977S309.161,110.789,309.161,111.881z"/>
			<path style="fill:none;stroke:#6FA4FF;stroke-width:0.9883;stroke-miterlimit:10;" d="M318.056,111.881
				c0,1.092-0.885,1.977-1.977,1.977c-1.092,0-1.977-0.885-1.977-1.977s0.885-1.977,1.977-1.977
				C317.171,109.904,318.056,110.789,318.056,111.881z"/>
		</g>
		<g>
			<path style="fill:#4582FF;" d="M122.861,150.096c0,0.728-0.59,1.318-1.318,1.318s-1.318-0.59-1.318-1.318s0.59-1.318,1.318-1.318
				S122.861,149.368,122.861,150.096z"/>
			<path style="fill:#4582FF;" d="M131.427,150.096c0,0.728-0.59,1.318-1.318,1.318c-0.728,0-1.318-0.59-1.318-1.318
				s0.59-1.318,1.318-1.318C130.837,148.778,131.427,149.368,131.427,150.096z"/>
			<path style="fill:#4582FF;" d="M139.992,150.096c0,0.728-0.59,1.318-1.318,1.318c-0.728,0-1.318-0.59-1.318-1.318
				s0.59-1.318,1.318-1.318C139.402,148.778,139.992,149.368,139.992,150.096z"/>
		</g>
	</g>
</g>
</svg>
